<svg xmlns="http://www.w3.org/2000/svg" viewBox="0 0 256 256">
  <style>
    @media (prefers-color-scheme:dark){.logo-light{display:none}.logo-dark{display:block}}@media (prefers-color-scheme:light){.logo-light{display:block}.logo-dark{display:none}}
  </style>
  <g class="logo-light">
    <path d="M41.5 36.5a7999 7999 0 0 1 42.905-.31c6.644-.032 13.287-.074 19.93-.143 6.432-.066 12.864-.1 19.297-.116a811 811 0 0 0 7.298-.065c22.151-.287 46.103.844 62.91 16.864 9.54 10.024 12.126 20.46 11.91 34.083-.736 10.853-5.435 20.696-13.336 28.18-3.081 2.427-6.328 3.934-9.914 5.507 2.464 2.053 4.668 3.3 7.625 4.625 8.415 4.081 16.351 11.848 20.5 20.25l.945 1.867c2.728 6.625 3.268 12.568 3.243 19.633l.048 2.71c.01 12.306-5.081 24.134-13.494 33.106-6.499 6.295-13.392 9.716-21.867 12.809l-2.57.941c-10.112 3.366-20.794 3.21-31.349 3.173h-3.404q-5.503-.002-11.005-.016l-7.684-.005q-9.035-.004-18.071-.021-10.299-.015-20.598-.022-21.16-.016-42.319-.05v-22c12.5-4.875 12.5-4.875 17-6v-127l-17-5c-1-1-1-1-1.114-3.133l.016-2.777.01-2.998.026-3.154.013-3.167q.018-3.885.049-7.771" fill="#020202"/>
    <path d="M99.5 134.5c26.64 5.328 26.64 5.328 33.625 12.813l1.375 2.187 1.285-1.426 1.778-1.887 1.722-1.863c5.162-4.251 11.515-5.547 17.903-6.949l4.449-1.008 3.863-.867 4-1v47c-4.338 1.24-7.863 2.202-12.187 2.813-8.13 1.425-16.185 3.934-21.813 10.187l-3-1v-2l-2.062-.812a254 254 0 0 1-6.375-2.688c-5.97-2.513-11.595-3.936-17.977-4.937-2.586-.563-2.586-.563-6.586-2.563zm3-67c6.102-.092 12.202-.172 18.304-.22q3.11-.03 6.218-.082c2.992-.049 5.982-.071 8.974-.089l2.776-.062c7.742-.003 13.73 1.901 19.666 6.953 5.187 6.288 4.745 12.588 4.062 20.5-1.497 6.39-5.3 9.435-10.684 12.871-5.418 2.64-11.1 2.26-16.992 2.227l-2.486-.003c-3.05-.006-6.1-.02-9.15-.032L102.5 109.5z" fill="#eee8d6"/>
  </g>
  <g class="logo-dark">
    <path d="M42.5 36.5q21.568-.07 43.135-.104 10.016-.014 20.033-.047a7493 7493 0 0 1 19.354-.039q3.681-.004 7.362-.021c31.118-.132 31.118-.132 46.116 6.211.696.275 1.392.55 2.11.832 10.701 4.688 19.632 14.501 23.89 25.266 3.183 10.695 2.768 23.613-1.937 33.715-4.888 8.262-11.057 14.018-19.063 19.187l2.527 1.25c13.09 6.718 22.285 14.522 27.473 28.75 2.618 14.14 2.361 30.4-5.25 42.938-9.355 13.32-22.425 20.804-38.384 23.657-12.498 2.131-25.08 1.779-37.718 1.698q-3.895-.009-7.792-.013a5559 5559 0 0 1-18.262-.064c-6.944-.034-13.887-.05-20.83-.065-14.255-.031-28.51-.086-42.764-.151v-22c12.375-4.875 12.375-4.875 18-6l1-128-7-1c-1.967-.463-3.927-.96-5.875-1.5l-2.867-.781C43.5 59.5 43.5 59.5 42.5 58.5a83 83 0 0 1-.098-4.91l.01-2.998.026-3.154.013-3.167q.018-3.885.049-7.771" fill="#fcfcfc"/>
    <path d="M100.5 134.5c27.177 6.395 27.177 6.395 35 14l1.047-1.32c8.146-8.633 21.66-10.798 32.953-12.68v47l-21 5c-7.866 3.298-7.866 3.298-14 9l-2-2.25c-5.82-5.724-12.838-7.394-20.656-9.04-3.803-.808-7.572-1.767-11.344-2.71zm3-67c6.263-.092 12.524-.172 18.787-.22a925 925 0 0 0 6.383-.082 911 911 0 0 1 9.205-.089l2.858-.062c7.658-.003 12.647 2.011 18.642 6.703 4.258 5.51 4.691 12.272 4.578 19.063-.892 5.289-4.236 8.9-8.312 12.186-9.33 6.542-21.958 4.836-32.766 4.689L103.5 109.5z" fill="#121212"/>
    <path d="m140.5 143.5 3 1-7 6c.96-3.837 1.236-4.597 4-7" fill="#121212"/>
  </g>
</svg>
